<svg xmlns="http://www.w3.org/2000/svg" version="1.1" xmlns:xlink="http://www.w3.org/1999/xlink" viewBox="0 0 12.117311804839336 4.877327048392916"><g transform="matrix(0.7749726958341936,0,0,0.7749726958341936,4.791707648064757,1.6718394901288027)"><rect width="13.533531709275357" height="13.533531709275357" x="-5.131936316558086" y="-5.777280627364951" fill="#ffffff"></rect><g transform="matrix(1,0,0,1,0,0)" clip-path="url(#SvgjsClipPath88755)"><g clip-path="url(#SvgjsClipPath88750d9c75f18-fba9-4776-81a3-b3b504ec68b9)"><path d=" M -3.5243862476588697 -0.15193298341667227 L -3.491572367210043 -0.13325431300733703 C -3.2663327522230334 0.000751429237787038 -2.9858196915830506 0.000751429237787038 -2.760580076596051 -0.13325431300733703 L -2.5914623850520595 -0.23119112542385656 C -2.429673383875995 -0.3263869761715096 -2.2455730959915625 -0.37707116138851104 -2.0578582060610326 -0.3780963440486289 C -1.8699751701510636 -0.37713617836786817 -1.6856954800674897 -0.32645055472484086 -1.5237491981400209 -0.23119112542385656 L -1.3551363355260237 -0.13375914193732175 C -1.1298012146990093 0.0005573341761567763 -0.8489743368090519 0.0005573341761567763 -0.6236392159820374 -0.13375914193732175 L -0.5913301644631956 -0.15243781234665688 L -1.2036876565314127 -0.5058180633340907 C -1.4626088319480681 -0.6583646959502732 -1.7573447930982697 -0.7395390209479034 -2.057858206061023 -0.7410683447057202 C -2.3583716190237953 -0.7395390209479034 -2.6531075801739874 -0.6583646959502732 -2.9120287555906526 -0.5058180633340907 Z" fill="#dce2e3" transform="matrix(1,0,0,1,0,0)" fill-rule="evenodd"></path></g><g clip-path="url(#SvgjsClipPath88750d9c75f18-fba9-4776-81a3-b3b504ec68b9)"><path d=" M -0.3999999999999999 0.18024445251151222 L -0.4318042225888763 0.1984182939908674 C -0.6606362033055171 0.3265649082487836 -0.8009182705217093 0.5697334087409434 -0.7973003678958723 0.8319786011183388 L -0.7973003678958723 1.0268425680914037 C -0.7960474929283263 1.2146334774291034 -0.8444641265972797 1.3994178239138937 -0.9376428104308667 1.5624660628023204 C -1.032447985462757 1.7245715184870565 -1.16848036919859 1.8586879531561826 -1.3319142047468686 1.9511843388885328 L -1.4995174095008963 2.0481114934450804 C -1.728624627864774 2.176044074266707 -1.8691457376525726 2.419290960864898 -1.865518383737877 2.681671800572547 L -1.865518383737877 2.7195339703212023 L -1.2536657205996442 2.366153719333771 C -0.9920506889100036 2.218249904222937 -0.7743121940062094 2.0036468436457615 -0.6226295581220871 1.744204477595889 L -0.6226295581220871 1.744204477595889 C -0.47405116804925607 1.4827670516087728 -0.3972453722666369 1.186690287820908 -0.3999999999999999 0.8859952966264151 Z" fill="#404040" transform="matrix(1,0,0,1,0,0)" fill-rule="evenodd"></path></g><g clip-path="url(#SvgjsClipPath88750d9c75f18-fba9-4776-81a3-b3b504ec68b9)"><path d=" M -2.2501980283841885 2.710447049581518 L -2.2501980283841885 2.6847007741524345 C -2.2465801257583604 2.4224555817750386 -2.3868621929745526 2.179287081282877 -2.6156941736911934 2.051140467024963 L -2.7848118652351754 1.9532036546084526 C -2.947845952917957 1.8605268883280286 -3.083508635042249 1.7264315542642201 -3.178073601691189 1.5644853785222779 L -3.178073601691189 1.5644853785222779 C -3.271255683815668 1.4016220523694893 -3.3196757608505827 1.216998737056529 -3.3184160442262023 1.0293667127413084 L -3.3184160442262023 0.8345027457682388 C -3.314576336947744 0.5721998483066095 -3.454919220333484 0.32892592752056204 -3.683912189533208 0.20094243864076744 L -3.7157164121220654 0.1827685971614169 L -3.7157164121220654 0.8779180337466927 C -3.7185671343918485 1.1786248312162688 -3.641754959969117 1.4747261838662418 -3.493086853999978 1.7361272147161784 C -3.3408460966442295 1.9953939186203629 -3.1225785874924132 2.2096549212195162 -2.860536204732486 2.357066798594086 Z" fill="#bab9b4" transform="matrix(1,0,0,1,0,0)" fill-rule="evenodd"></path></g><g clip-path="url(#SvgjsClipPath88750d9c75f18-fba9-4776-81a3-b3b504ec68b9)"><path d=" M -1.6146184055367976 0.5947090040267684 C -1.6146184055367976 0.8395036086113354 -1.8130636014764656 1.0379488045510032 -2.0578582060610326 1.0379488045510032 C -2.3026528106455997 1.0379488045510032 -2.5010980065852673 0.8395036086113354 -2.5010980065852673 0.5947090040267684 C -2.5010980065852673 0.3499143994422014 -2.3026528106455997 0.15146920350253368 -2.0578582060610326 0.15146920350253368 C -1.8130636014764656 0.15146920350253368 -1.6146184055367976 0.3499143994422014 -1.6146184055367976 0.5947090040267684 Z" fill="#4e888f" transform="matrix(1,0,0,1,0,0)" fill-rule="nonzero"></path></g><g clip-path="url(#SvgjsClipPath88750d9c75f18-fba9-4776-81a3-b3b504ec68b9)"><path d=" M -2.0578582060610326 0.23678529266950255 L -2.0578582060610326 0.23678529266950255 C -1.9209138672680248 0.23733860989484257 -1.810035689735202 0.34821678742765605 -1.8094823725098665 0.48516112622066854 L -1.8094823725098665 1.552874313132691 C -1.810037318049914 1.689736105436169 -1.9209955679458903 1.8004688304339806 -2.0578582060610326 1.8007453177538744 L -2.0578582060610326 1.8007453177538744 C -2.1947208441761656 1.8004688304339806 -2.3056790940721514 1.689736105436169 -2.3062340396121987 1.552874313132691 L -2.3062340396121987 0.48516112622066854 C -2.305680722386854 0.34821678742765605 -2.194802544854031 0.2373386098948378 -2.057858206061023 0.23678529266950255 Z" fill="#4e888f" transform="matrix(1,0,0,1,0,0)" fill-rule="evenodd"></path></g></g><g><path d=" M 0.26175 1.1152499999999996 Q 0.18 1.0784999999999998 0.1335 1.0132499999999998 Q 0.08700000000000001 0.9479999999999997 0.0855 0.8624999999999997 L 0.231 0.8624999999999997 Q 0.23850000000000002 0.9359999999999997 0.29175 0.9862499999999997 Q 0.34500000000000003 1.0364999999999998 0.447 1.0364999999999998 Q 0.5445 1.0364999999999998 0.60075 0.9877499999999997 Q 0.657 0.9389999999999997 0.657 0.8624999999999997 Q 0.657 0.8024999999999998 0.624 0.7649999999999997 Q 0.591 0.7274999999999997 0.5415 0.7079999999999997 Q 0.492 0.6884999999999997 0.40800000000000003 0.6659999999999997 Q 0.3045 0.6389999999999997 0.24225 0.6119999999999998 Q 0.18 0.5849999999999997 0.13575 0.5272499999999998 Q 0.0915 0.4694999999999997 0.0915 0.3719999999999998 Q 0.0915 0.28649999999999975 0.135 0.2204999999999997 Q 0.1785 0.15449999999999975 0.25725 0.1184999999999996 Q 0.336 0.0824999999999998 0.438 0.0824999999999998 Q 0.585 0.0824999999999998 0.67875 0.1559999999999997 Q 0.7725 0.2294999999999997 0.7845 0.35099999999999976 L 0.6345000000000001 0.35099999999999976 Q 0.627 0.2909999999999997 0.5715 0.24524999999999975 Q 0.516 0.19949999999999968 0.4245 0.19949999999999968 Q 0.339 0.19949999999999968 0.28500000000000003 0.2437499999999997 Q 0.231 0.2879999999999997 0.231 0.3674999999999997 Q 0.231 0.42449999999999977 0.26325 0.4604999999999997 Q 0.2955 0.4964999999999997 0.34275 0.5152499999999998 Q 0.39 0.5339999999999997 0.47550000000000003 0.5579999999999997 Q 0.579 0.5864999999999997 0.642 0.6142499999999997 Q 0.705 0.6419999999999997 0.75 0.6997499999999997 Q 0.795 0.7574999999999997 0.795 0.8564999999999997 Q 0.795 0.9329999999999997 0.7545000000000001 1.0004999999999997 Q 0.714 1.0679999999999998 0.6345000000000001 1.1099999999999997 Q 0.555 1.1519999999999997 0.447 1.1519999999999997 Q 0.3435 1.1519999999999997 0.26175 1.1152499999999996 M 0.9989626464843749 0.1589999999999997 Q 0.9719626464843749 0.13199999999999967 0.9719626464843749 0.09299999999999975 Q 0.9719626464843749 0.053999999999999604 0.9989626464843749 0.02699999999999969 Q 1.025962646484375 -2.220446049250313e-16 1.0649626464843749 -2.220446049250313e-16 Q 1.102462646484375 -2.220446049250313e-16 1.1287126464843749 0.02699999999999969 Q 1.154962646484375 0.053999999999999604 1.154962646484375 0.09299999999999975 Q 1.154962646484375 0.13199999999999967 1.1287126464843749 0.1589999999999997 Q 1.102462646484375 0.18599999999999972 1.0649626464843749 0.18599999999999972 Q 1.025962646484375 0.18599999999999972 0.9989626464843749 0.1589999999999997 M 1.130962646484375 0.3194999999999997 L 1.130962646484375 1.1414999999999997 L 0.994462646484375 1.1414999999999997 L 0.994462646484375 0.3194999999999997 L 1.130962646484375 0.3194999999999997 M 1.3619201660156248 0.5062499999999998 Q 1.412920166015625 0.4109999999999997 1.5036701660156249 0.3584999999999997 Q 1.594420166015625 0.3059999999999997 1.711420166015625 0.3059999999999997 Q 1.862920166015625 0.3059999999999997 1.9611701660156249 0.3794999999999997 Q 2.059420166015625 0.45299999999999974 2.090920166015625 0.5834999999999997 L 1.943920166015625 0.5834999999999997 Q 1.9229201660156248 0.5084999999999997 1.862170166015625 0.46499999999999975 Q 1.801420166015625 0.42149999999999976 1.711420166015625 0.42149999999999976 Q 1.594420166015625 0.42149999999999976 1.522420166015625 0.5017499999999997 Q 1.4504201660156248 0.5819999999999997 1.4504201660156248 0.7289999999999996 Q 1.4504201660156248 0.8774999999999997 1.522420166015625 0.9584999999999997 Q 1.594420166015625 1.0394999999999996 1.711420166015625 1.0394999999999996 Q 1.801420166015625 1.0394999999999996 1.8614201660156249 0.9974999999999997 Q 1.921420166015625 0.9554999999999998 1.943920166015625 0.8774999999999997 L 2.090920166015625 0.8774999999999997 Q 2.057920166015625 1.0034999999999998 1.9589201660156248 1.0792499999999998 Q 1.859920166015625 1.1549999999999998 1.711420166015625 1.1549999999999998 Q 1.594420166015625 1.1549999999999998 1.5036701660156249 1.1024999999999998 Q 1.412920166015625 1.0499999999999998 1.3619201660156248 0.9539999999999997 Q 1.3109201660156249 0.8579999999999997 1.3109201660156249 0.7289999999999996 Q 1.3109201660156249 0.6014999999999997 1.3619201660156248 0.5062499999999998 M 2.846912109375 0.3442499999999997 Q 2.921912109375 0.3839999999999997 2.964662109375 0.4634999999999997 Q 3.0074121093749997 0.5429999999999997 3.0074121093749997 0.6569999999999998 L 3.0074121093749997 1.1414999999999997 L 2.872412109375 1.1414999999999997 L 2.872412109375 0.6764999999999997 Q 2.872412109375 0.5534999999999998 2.810912109375 0.48824999999999974 Q 2.7494121093749997 0.4229999999999997 2.6429121093749997 0.4229999999999997 Q 2.534912109375 0.4229999999999997 2.471162109375 0.4904999999999997 Q 2.4074121093749996 0.5579999999999997 2.4074121093749996 0.6869999999999997 L 2.4074121093749996 1.1414999999999997 L 2.2709121093749998 1.1414999999999997 L 2.2709121093749998 0.03149999999999964 L 2.4074121093749996 0.03149999999999964 L 2.4074121093749996 0.4364999999999998 Q 2.447912109375 0.3734999999999997 2.519162109375 0.33899999999999975 Q 2.590412109375 0.30449999999999977 2.6789121093749997 0.30449999999999977 Q 2.771912109375 0.30449999999999977 2.846912109375 0.3442499999999997 M 3.9749340820312495 0.7814999999999998 L 3.31793408203125 0.7814999999999998 Q 3.32543408203125 0.9029999999999997 3.40118408203125 0.9712499999999997 Q 3.4769340820312498 1.0394999999999996 3.58493408203125 1.0394999999999996 Q 3.6734340820312497 1.0394999999999996 3.7326840820312497 0.9982499999999997 Q 3.7919340820312497 0.9569999999999997 3.8159340820312497 0.8879999999999997 L 3.96293408203125 0.8879999999999997 Q 3.9299340820312496 1.0064999999999997 3.83093408203125 1.0807499999999997 Q 3.7319340820312497 1.1549999999999998 3.58493408203125 1.1549999999999998 Q 3.46793408203125 1.1549999999999998 3.37568408203125 1.1024999999999998 Q 3.28343408203125 1.0499999999999998 3.2309340820312498 0.9532499999999997 Q 3.1784340820312496 0.8564999999999997 3.1784340820312496 0.7289999999999996 Q 3.1784340820312496 0.6014999999999997 3.2294340820312497 0.5054999999999997 Q 3.28043408203125 0.40949999999999975 3.37268408203125 0.3577499999999997 Q 3.4649340820312498 0.3059999999999997 3.58493408203125 0.3059999999999997 Q 3.70193408203125 0.3059999999999997 3.7919340820312497 0.35699999999999976 Q 3.8819340820312496 0.4079999999999997 3.9306840820312496 0.49724999999999975 Q 3.9794340820312497 0.5864999999999997 3.9794340820312497 0.6989999999999997 Q 3.9794340820312497 0.7379999999999998 3.9749340820312495 0.7814999999999998 M 3.8039340820312497 0.5362499999999997 Q 3.7694340820312497 0.47999999999999976 3.7101840820312497 0.45074999999999976 Q 3.6509340820312497 0.42149999999999976 3.5789340820312496 0.42149999999999976 Q 3.4754340820312497 0.42149999999999976 3.4026840820312496 0.4874999999999997 Q 3.32993408203125 0.5534999999999998 3.3194340820312496 0.6704999999999997 L 3.8384340820312497 0.6704999999999997 Q 3.8384340820312497 0.5924999999999997 3.8039340820312497 0.5362499999999997 M 4.3971767578125 0.3434999999999997 Q 4.4639267578125 0.30449999999999977 4.5599267578125 0.30449999999999977 L 4.5599267578125 0.4454999999999997 L 4.523926757812499 0.4454999999999997 Q 4.2944267578124995 0.4454999999999997 4.2944267578124995 0.6944999999999997 L 4.2944267578124995 1.1414999999999997 L 4.1579267578125 1.1414999999999997 L 4.1579267578125 0.3194999999999997 L 4.2944267578124995 0.3194999999999997 L 4.2944267578124995 0.45299999999999974 Q 4.3304267578125 0.38249999999999973 4.3971767578125 0.3434999999999997 M 5.325655517578125 0.6187499999999997 Q 5.236405517578125 0.7049999999999997 5.053405517578125 0.7049999999999997 L 4.852405517578124 0.7049999999999997 L 4.852405517578124 1.1414999999999997 L 4.715905517578125 1.1414999999999997 L 4.715905517578125 0.09599999999999964 L 5.053405517578125 0.09599999999999964 Q 5.2304055175781246 0.09599999999999964 5.3226555175781245 0.18149999999999977 Q 5.414905517578124 0.2669999999999997 5.414905517578124 0.4019999999999997 Q 5.414905517578124 0.5324999999999998 5.325655517578125 0.6187499999999997 M 5.221405517578125 0.5429999999999997 Q 5.2754055175781245 0.4934999999999997 5.2754055175781245 0.4019999999999997 Q 5.2754055175781245 0.20849999999999969 5.053405517578125 0.20849999999999969 L 4.852405517578124 0.20849999999999969 L 4.852405517578124 0.5924999999999997 L 5.053405517578125 0.5924999999999997 Q 5.167405517578125 0.5924999999999997 5.221405517578125 0.5429999999999997 M 5.822124755859375 0.3434999999999997 Q 5.888874755859375 0.30449999999999977 5.984874755859375 0.30449999999999977 L 5.984874755859375 0.4454999999999997 L 5.948874755859374 0.4454999999999997 Q 5.719374755859374 0.4454999999999997 5.719374755859374 0.6944999999999997 L 5.719374755859374 1.1414999999999997 L 5.5828747558593745 1.1414999999999997 L 5.5828747558593745 0.3194999999999997 L 5.719374755859374 0.3194999999999997 L 5.719374755859374 0.45299999999999974 Q 5.755374755859375 0.38249999999999973 5.822124755859375 0.3434999999999997 M 6.290103515625 1.1024999999999998 Q 6.196353515625 1.0499999999999998 6.143103515625 0.9532499999999997 Q 6.089853515624999 0.8564999999999997 6.089853515624999 0.7289999999999996 Q 6.089853515624999 0.6029999999999998 6.144603515625 0.5062499999999998 Q 6.199353515625 0.40949999999999975 6.293853515625 0.3577499999999997 Q 6.388353515624999 0.3059999999999997 6.505353515625 0.3059999999999997 Q 6.622353515624999 0.3059999999999997 6.716853515624999 0.3577499999999997 Q 6.811353515624999 0.40949999999999975 6.866103515624999 0.5054999999999997 Q 6.920853515625 0.6014999999999997 6.920853515625 0.7289999999999996 Q 6.920853515625 0.8564999999999997 6.864603515624999 0.9532499999999997 Q 6.808353515625 1.0499999999999998 6.712353515625 1.1024999999999998 Q 6.616353515625 1.1549999999999998 6.499353515625 1.1549999999999998 Q 6.383853515625 1.1549999999999998 6.290103515625 1.1024999999999998 M 6.637353515625 1.0004999999999997 Q 6.701853515624999 0.9659999999999997 6.741603515625 0.8969999999999998 Q 6.781353515625 0.8279999999999997 6.781353515625 0.7289999999999996 Q 6.781353515625 0.6299999999999997 6.742353515624999 0.5609999999999997 Q 6.7033535156249995 0.49199999999999977 6.640353515625 0.4582499999999997 Q 6.577353515624999 0.42449999999999977 6.503853515625 0.42449999999999977 Q 6.428853515625 0.42449999999999977 6.366603515624999 0.4582499999999997 Q 6.3043535156249995 0.49199999999999977 6.266853515625 0.5609999999999997 Q 6.229353515624999 0.6299999999999997 6.229353515624999 0.7289999999999996 Q 6.229353515624999 0.8294999999999997 6.266103515625 0.8984999999999997 Q 6.302853515624999 0.9674999999999997 6.364353515625 1.0012499999999998 Q 6.425853515625 1.0349999999999997 6.499353515625 1.0349999999999997 Q 6.572853515625 1.0349999999999997 6.637353515625 1.0004999999999997" fill="#404040" fill-rule="nonzero"></path></g><g><path d=" M 0.13977272727272727 1.978970454545454 Q 0.1309090909090909 1.978970454545454 0.12579545454545454 1.9741977272727267 Q 0.12068181818181817 1.9694249999999995 0.11863636363636362 1.9605613636363632 L 0.030681818181818178 1.5228340909090905 Q 0.03 1.5201068181818178 0.03 1.5180613636363631 Q 0.03 1.5160159090909087 0.03 1.5153340909090904 Q 0.03 1.509879545454545 0.03409090909090909 1.505788636363636 Q 0.03818181818181818 1.5016977272727268 0.04363636363636363 1.5016977272727268 L 0.07909090909090909 1.5016977272727268 Q 0.0934090909090909 1.5016977272727268 0.09545454545454544 1.513288636363636 L 0.16499999999999998 1.8651068181818178 L 0.23863636363636362 1.6237431818181813 Q 0.24068181818181816 1.6176068181818177 0.24579545454545454 1.6124931818181814 Q 0.2509090909090909 1.607379545454545 0.26045454545454544 1.607379545454545 L 0.28568181818181815 1.607379545454545 Q 0.2959090909090909 1.607379545454545 0.30068181818181816 1.6124931818181814 Q 0.3054545454545454 1.6176068181818177 0.30681818181818177 1.6237431818181813 L 0.3811363636363636 1.8651068181818178 L 0.44999999999999996 1.513288636363636 Q 0.45204545454545453 1.5016977272727268 0.4670454545454545 1.5016977272727268 L 0.5025 1.5016977272727268 Q 0.5079545454545454 1.5016977272727268 0.5120454545454545 1.505788636363636 Q 0.5161363636363636 1.509879545454545 0.5161363636363636 1.5153340909090904 Q 0.5161363636363636 1.5160159090909087 0.5157954545454545 1.5180613636363631 Q 0.5154545454545454 1.5201068181818178 0.5154545454545454 1.5228340909090905 L 0.4275 1.9605613636363632 Q 0.4254545454545454 1.9694249999999995 0.42034090909090904 1.9741977272727267 Q 0.41522727272727267 1.978970454545454 0.4063636363636363 1.978970454545454 L 0.37977272727272726 1.978970454545454 Q 0.3702272727272727 1.978970454545454 0.36477272727272725 1.9741977272727267 Q 0.3593181818181818 1.9694249999999995 0.35727272727272724 1.9619249999999995 L 0.2727272727272727 1.7021522727272722 L 0.18886363636363634 1.9619249999999995 Q 0.18613636363636363 1.9694249999999995 0.18102272727272725 1.9741977272727267 Q 0.1759090909090909 1.978970454545454 0.16636363636363635 1.978970454545454 L 0.13977272727272727 1.978970454545454 M 0.6804905007102272 1.985788636363636 Q 0.6463995916193181 1.985788636363636 0.6184450461647727 1.9721522727272722 Q 0.5904905007102272 1.9585159090909086 0.5734450461647727 1.9353340909090904 Q 0.5563995916193182 1.9121522727272722 0.5563995916193182 1.8828340909090904 Q 0.5563995916193182 1.835788636363636 0.5945814098011363 1.8078340909090904 Q 0.6327632279829545 1.779879545454545 0.6941268643465909 1.7710159090909086 L 0.7957177734374999 1.7566977272727269 L 0.7957177734374999 1.7369249999999996 Q 0.7957177734374999 1.704197727272727 0.7769677734375 1.6857886363636359 Q 0.7582177734375 1.667379545454545 0.7159450461647727 1.667379545454545 Q 0.6859450461647727 1.667379545454545 0.6668541370738637 1.6796522727272722 Q 0.6477632279829545 1.6919249999999995 0.6402632279829545 1.7110159090909085 Q 0.6361723188920454 1.7212431818181813 0.6259450461647726 1.7212431818181813 L 0.5952632279829545 1.7212431818181813 Q 0.5877632279829546 1.7212431818181813 0.5840132279829545 1.716811363636363 Q 0.5802632279829545 1.712379545454545 0.5802632279829545 1.7062431818181814 Q 0.5802632279829545 1.6960159090909086 0.5881041370738636 1.6810159090909087 Q 0.5959450461647727 1.6660159090909086 0.6123086825284091 1.651697727272727 Q 0.6286723188920454 1.637379545454545 0.6542405007102272 1.6274931818181813 Q 0.6798086825284091 1.6176068181818177 0.7166268643465908 1.6176068181818177 Q 0.7575359552556817 1.6176068181818177 0.7854905007102272 1.6281749999999995 Q 0.8134450461647726 1.6387431818181812 0.8294677734375 1.656470454545454 Q 0.8454905007102271 1.6741977272727269 0.8526495916193182 1.6966977272727268 Q 0.859808682528409 1.7191977272727268 0.859808682528409 1.742379545454545 L 0.859808682528409 1.963288636363636 Q 0.859808682528409 1.9701068181818178 0.8553768643465909 1.974538636363636 Q 0.8509450461647727 1.978970454545454 0.8441268643465909 1.978970454545454 L 0.8127632279829544 1.978970454545454 Q 0.8052632279829545 1.978970454545454 0.8011723188920454 1.974538636363636 Q 0.7970814098011363 1.9701068181818178 0.7970814098011363 1.963288636363636 L 0.7970814098011363 1.9339704545454541 Q 0.7882177734375 1.9462431818181813 0.7732177734375 1.9581749999999996 Q 0.7582177734375 1.9701068181818178 0.7357177734375 1.9779477272727268 Q 0.7132177734374999 1.985788636363636 0.6804905007102272 1.985788636363636 M 0.694808682528409 1.9346522727272721 Q 0.7227632279829544 1.9346522727272721 0.7459450461647726 1.9227204545454541 Q 0.7691268643465908 1.910788636363636 0.7824223188920454 1.885561363636363 Q 0.7957177734374999 1.8603340909090904 0.7957177734374999 1.8221522727272723 L 0.7957177734374999 1.8030613636363633 L 0.7166268643465908 1.8146522727272723 Q 0.6682177734374999 1.821470454545454 0.6436723188920455 1.8374931818181812 Q 0.6191268643465908 1.8535159090909086 0.6191268643465908 1.8780613636363632 Q 0.6191268643465908 1.8971522727272723 0.6303768643465909 1.9097659090909087 Q 0.6416268643465909 1.922379545454545 0.6590132279829545 1.9285159090909085 Q 0.6763995916193182 1.9346522727272721 0.694808682528409 1.9346522727272721 M 1.1011736505681817 1.985788636363636 Q 1.0527645596590909 1.985788636363636 1.0176509232954545 1.9670386363636359 Q 0.9825372869318181 1.9482886363636358 0.963446377840909 1.9131749999999994 Q 0.94435546875 1.8780613636363632 0.9429918323863635 1.8289704545454541 Q 0.9423100142045454 1.8187431818181814 0.9423100142045454 1.8016977272727268 Q 0.9423100142045454 1.7846522727272722 0.9429918323863635 1.7744249999999995 Q 0.94435546875 1.7253340909090904 0.963446377840909 1.6902204545454542 Q 0.9825372869318181 1.6551068181818178 1.0176509232954545 1.6363568181818178 Q 1.0527645596590909 1.6176068181818177 1.1011736505681817 1.6176068181818177 Q 1.1407191051136363 1.6176068181818177 1.1690145596590908 1.6285159090909087 Q 1.1973100142045454 1.6394249999999995 1.2157191051136362 1.656470454545454 Q 1.234128196022727 1.6735159090909086 1.2433327414772726 1.693288636363636 Q 1.252537286931818 1.7130613636363632 1.2532191051136363 1.730788636363636 Q 1.2539009232954546 1.7376068181818178 1.2491281960227272 1.7416977272727268 Q 1.2443554687499998 1.745788636363636 1.237537286931818 1.745788636363636 L 1.2048100142045453 1.745788636363636 Q 1.1979918323863634 1.745788636363636 1.1945827414772727 1.742720454545454 Q 1.1911736505681818 1.7396522727272723 1.187764559659091 1.7321522727272722 Q 1.1754918323863635 1.6987431818181813 1.15435546875 1.6851068181818176 Q 1.1332191051136362 1.671470454545454 1.10185546875 1.671470454545454 Q 1.060946377840909 1.671470454545454 1.0353781960227273 1.6966977272727268 Q 1.0098100142045454 1.7219249999999995 1.007764559659091 1.7778340909090904 Q 1.0070827414772727 1.802379545454545 1.007764559659091 1.8255613636363632 Q 1.0098100142045454 1.8821522727272721 1.0353781960227273 1.9070386363636358 Q 1.060946377840909 1.9319249999999994 1.10185546875 1.9319249999999994 Q 1.1332191051136362 1.9319249999999994 1.15435546875 1.9182886363636358 Q 1.1754918323863635 1.9046522727272723 1.187764559659091 1.8712431818181814 Q 1.1911736505681818 1.8637431818181813 1.1945827414772727 1.8603340909090904 Q 1.1979918323863634 1.8569249999999995 1.2048100142045453 1.8569249999999995 L 1.237537286931818 1.8569249999999995 Q 1.2443554687499998 1.8569249999999995 1.2491281960227272 1.8613568181818176 Q 1.2539009232954546 1.8657886363636358 1.2532191051136363 1.8726068181818176 Q 1.252537286931818 1.8869249999999995 1.2470827414772727 1.9019249999999994 Q 1.2416281960227271 1.9169249999999995 1.229696377840909 1.9322659090909087 Q 1.217764559659091 1.9476068181818178 1.200037286931818 1.9595386363636358 Q 1.1823100142045453 1.971470454545454 1.1577645596590909 1.978629545454545 Q 1.1332191051136362 1.985788636363636 1.1011736505681817 1.985788636363636 M 1.3507204367897727 1.978970454545454 Q 1.3439022549715909 1.978970454545454 1.3394704367897727 1.974538636363636 Q 1.3350386186079544 1.9701068181818178 1.3350386186079544 1.963288636363636 L 1.3350386186079544 1.5105613636363633 Q 1.3350386186079544 1.5037431818181815 1.3394704367897727 1.4993113636363633 Q 1.3439022549715909 1.494879545454545 1.3507204367897727 1.494879545454545 L 1.3848113458806817 1.494879545454545 Q 1.3923113458806817 1.494879545454545 1.3964022549715909 1.4993113636363633 Q 1.4004931640625 1.5037431818181815 1.4004931640625 1.5105613636363633 L 1.4004931640625 1.6694249999999995 Q 1.4189022549715908 1.6462431818181813 1.4454931640625 1.6319249999999996 Q 1.472084073153409 1.6176068181818177 1.5129931640624998 1.6176068181818177 Q 1.5573113458806818 1.6176068181818177 1.588334073153409 1.637038636363636 Q 1.6193568004261363 1.656470454545454 1.6353795276988636 1.6909022727272722 Q 1.6514022549715908 1.7253340909090904 1.6514022549715908 1.7710159090909086 L 1.6514022549715908 1.963288636363636 Q 1.6514022549715908 1.9701068181818178 1.6473113458806816 1.974538636363636 Q 1.6432204367897727 1.978970454545454 1.6357204367897726 1.978970454545454 L 1.6016295276988635 1.978970454545454 Q 1.5948113458806816 1.978970454545454 1.5903795276988635 1.974538636363636 Q 1.5859477095170453 1.9701068181818178 1.5859477095170453 1.963288636363636 L 1.5859477095170453 1.7744249999999995 Q 1.5859477095170453 1.7266977272727269 1.5627658913352271 1.6997659090909085 Q 1.539584073153409 1.6728340909090904 1.494584073153409 1.6728340909090904 Q 1.4523113458806818 1.6728340909090904 1.426402254971591 1.6997659090909085 Q 1.4004931640625 1.7266977272727269 1.4004931640625 1.7744249999999995 L 1.4004931640625 1.963288636363636 Q 1.4004931640625 1.9701068181818178 1.3964022549715909 1.974538636363636 Q 1.3923113458806817 1.978970454545454 1.3848113458806817 1.978970454545454 L 1.3507204367897727 1.978970454545454 M 1.8723173384232952 1.985788636363636 Q 1.834135520241477 1.985788636363636 1.8068627929687497 1.9762431818181814 Q 1.7795900656960226 1.9666977272727268 1.762544611150568 1.9530613636363632 Q 1.7454991566051135 1.9394249999999995 1.7369764293323862 1.9257886363636358 Q 1.7284537020596589 1.9121522727272722 1.7277718838778406 1.903970454545454 Q 1.7270900656960224 1.896470454545454 1.732544611150568 1.892379545454545 Q 1.7379991566051134 1.888288636363636 1.743453702059659 1.888288636363636 L 1.774135520241477 1.888288636363636 Q 1.777544611150568 1.888288636363636 1.7799309747869316 1.8893113636363632 Q 1.7823173384232953 1.8903340909090904 1.7864082475142042 1.8951068181818176 Q 1.7952718838778408 1.9046522727272723 1.8061809747869315 1.9141977272727269 Q 1.8170900656960225 1.9237431818181814 1.8331127929687498 1.929879545454545 Q 1.849135520241477 1.9360159090909086 1.8729991566051134 1.9360159090909086 Q 1.9077718838778406 1.9360159090909086 1.9302718838778408 1.9227204545454541 Q 1.9527718838778407 1.9094249999999995 1.9527718838778407 1.8835159090909086 Q 1.9527718838778407 1.866470454545454 1.9435673384232952 1.8562431818181813 Q 1.9343627929687497 1.8460159090909087 1.9108400656960225 1.8378340909090904 Q 1.8873173384232953 1.8296522727272722 1.8464082475142043 1.8207886363636359 Q 1.8054991566051135 1.8112431818181813 1.781635520241477 1.7972659090909087 Q 1.7577718838778407 1.7832886363636358 1.747544611150568 1.7638568181818177 Q 1.7373173384232952 1.7444249999999994 1.7373173384232952 1.719879545454545 Q 1.7373173384232952 1.6946522727272724 1.7523173384232953 1.671129545454545 Q 1.7673173384232952 1.6476068181818178 1.796294611150568 1.6326068181818179 Q 1.8252718838778408 1.6176068181818177 1.8689082475142043 1.6176068181818177 Q 1.9043627929687497 1.6176068181818177 1.9295900656960225 1.626470454545454 Q 1.9548173384232952 1.6353340909090903 1.9711809747869316 1.648629545454545 Q 1.987544611150568 1.6619249999999997 1.9957264293323862 1.6748795454545449 Q 2.0039082475142043 1.6878340909090905 2.0045900656960223 1.6966977272727268 Q 2.0052718838778407 1.7035159090909087 2.0004991566051133 1.7079477272727268 Q 1.9957264293323862 1.712379545454545 1.9895900656960226 1.712379545454545 L 1.9609537020596588 1.712379545454545 Q 1.9561809747869316 1.712379545454545 1.9531127929687497 1.7103340909090905 Q 1.950044611150568 1.708288636363636 1.9473173384232951 1.7055613636363631 Q 1.9404991566051133 1.6966977272727268 1.931294611150568 1.6878340909090905 Q 1.9220900656960225 1.678970454545454 1.9074309747869316 1.6731749999999996 Q 1.8927718838778407 1.667379545454545 1.8689082475142043 1.667379545454545 Q 1.8348173384232953 1.667379545454545 1.8177718838778407 1.6816977272727267 Q 1.8007264293323861 1.6960159090909086 1.8007264293323861 1.7178340909090903 Q 1.8007264293323861 1.730788636363636 1.8082264293323862 1.7410159090909085 Q 1.8157264293323863 1.7512431818181813 1.8368627929687498 1.7594249999999996 Q 1.8579991566051135 1.7676068181818176 1.8995900656960225 1.7771522727272722 Q 1.9445900656960224 1.7860159090909087 1.9704991566051135 1.8010159090909086 Q 1.9964082475142044 1.8160159090909087 2.007317338423295 1.835788636363636 Q 2.018226429332386 1.8555613636363633 2.018226429332386 1.8814704545454541 Q 2.018226429332386 1.9101068181818177 2.00186279296875 1.9339704545454541 Q 1.9854991566051134 1.9578340909090903 1.9527718838778407 1.9718113636363632 Q 1.920044611150568 1.985788636363636 1.8723173384232952 1.985788636363636 M 2.2405058149857955 1.985788636363636 Q 2.192096724076704 1.985788636363636 2.1569830877130682 1.9670386363636359 Q 2.121869451349432 1.9482886363636358 2.1027785422585223 1.9131749999999994 Q 2.0836876331676133 1.8780613636363632 2.0823239968039773 1.8289704545454541 Q 2.081642178622159 1.8187431818181814 2.081642178622159 1.8016977272727268 Q 2.081642178622159 1.7846522727272722 2.0823239968039773 1.7744249999999995 Q 2.0836876331676133 1.7253340909090904 2.1027785422585223 1.6902204545454542 Q 2.121869451349432 1.6551068181818178 2.1569830877130682 1.6363568181818178 Q 2.192096724076704 1.6176068181818177 2.2405058149857955 1.6176068181818177 Q 2.28005126953125 1.6176068181818177 2.3083467240767046 1.6285159090909087 Q 2.3366421786221587 1.6394249999999995 2.3550512695312498 1.656470454545454 Q 2.373460360440341 1.6735159090909086 2.3826649058948863 1.693288636363636 Q 2.3918694513494314 1.7130613636363632 2.39255126953125 1.730788636363636 Q 2.393233087713068 1.7376068181818178 2.388460360440341 1.7416977272727268 Q 2.3836876331676136 1.745788636363636 2.3768694513494317 1.745788636363636 L 2.344142178622159 1.745788636363636 Q 2.337323996803977 1.745788636363636 2.3339149058948863 1.742720454545454 Q 2.3305058149857953 1.7396522727272723 2.3270967240767044 1.7321522727272722 Q 2.314823996803977 1.6987431818181813 2.2936876331676133 1.6851068181818176 Q 2.2725512695312498 1.671470454545454 2.2411876331676135 1.671470454545454 Q 2.2002785422585225 1.671470454545454 2.174710360440341 1.6966977272727268 Q 2.1491421786221587 1.7219249999999995 2.1470967240767043 1.7778340909090904 Q 2.1464149058948863 1.802379545454545 2.1470967240767043 1.8255613636363632 Q 2.1491421786221587 1.8821522727272721 2.174710360440341 1.9070386363636358 Q 2.2002785422585225 1.9319249999999994 2.2411876331676135 1.9319249999999994 Q 2.2725512695312498 1.9319249999999994 2.2936876331676133 1.9182886363636358 Q 2.314823996803977 1.9046522727272723 2.3270967240767044 1.8712431818181814 Q 2.3305058149857953 1.8637431818181813 2.3339149058948863 1.8603340909090904 Q 2.337323996803977 1.8569249999999995 2.344142178622159 1.8569249999999995 L 2.3768694513494317 1.8569249999999995 Q 2.3836876331676136 1.8569249999999995 2.388460360440341 1.8613568181818176 Q 2.393233087713068 1.8657886363636358 2.39255126953125 1.8726068181818176 Q 2.3918694513494314 1.8869249999999995 2.386414905894886 1.9019249999999994 Q 2.3809603604403407 1.9169249999999995 2.3690285422585227 1.9322659090909087 Q 2.3570967240767042 1.9476068181818178 2.3393694513494316 1.9595386363636358 Q 2.321642178622159 1.971470454545454 2.297096724076704 1.978629545454545 Q 2.2725512695312498 1.985788636363636 2.2405058149857955 1.985788636363636 M 2.490052601207386 1.978970454545454 Q 2.483234419389204 1.978970454545454 2.478802601207386 1.974538636363636 Q 2.474370783025568 1.9701068181818178 2.474370783025568 1.963288636363636 L 2.474370783025568 1.5105613636363633 Q 2.474370783025568 1.5037431818181815 2.478802601207386 1.4993113636363633 Q 2.483234419389204 1.494879545454545 2.490052601207386 1.494879545454545 L 2.524143510298295 1.494879545454545 Q 2.531643510298295 1.494879545454545 2.535734419389204 1.4993113636363633 Q 2.5398253284801133 1.5037431818181815 2.5398253284801133 1.5105613636363633 L 2.5398253284801133 1.6694249999999995 Q 2.558234419389204 1.6462431818181813 2.5848253284801133 1.6319249999999996 Q 2.611416237571022 1.6176068181818177 2.652325328480113 1.6176068181818177 Q 2.696643510298295 1.6176068181818177 2.727666237571022 1.637038636363636 Q 2.7586889648437496 1.656470454545454 2.774711692116477 1.6909022727272722 Q 2.7907344193892043 1.7253340909090904 2.7907344193892043 1.7710159090909086 L 2.7907344193892043 1.963288636363636 Q 2.7907344193892043 1.9701068181818178 2.786643510298295 1.974538636363636 Q 2.782552601207386 1.978970454545454 2.7750526012073857 1.978970454545454 L 2.740961692116477 1.978970454545454 Q 2.734143510298295 1.978970454545454 2.729711692116477 1.974538636363636 Q 2.7252798739346584 1.9701068181818178 2.7252798739346584 1.963288636363636 L 2.7252798739346584 1.7744249999999995 Q 2.7252798739346584 1.7266977272727269 2.7020980557528405 1.6997659090909085 Q 2.6789162375710225 1.6728340909090904 2.633916237571022 1.6728340909090904 Q 2.591643510298295 1.6728340909090904 2.565734419389204 1.6997659090909085 Q 2.5398253284801133 1.7266977272727269 2.5398253284801133 1.7744249999999995 L 2.5398253284801133 1.963288636363636 Q 2.5398253284801133 1.9701068181818178 2.535734419389204 1.974538636363636 Q 2.531643510298295 1.978970454545454 2.524143510298295 1.978970454545454 L 2.490052601207386 1.978970454545454 M 3.021194957386363 1.985788636363636 Q 2.9775585937499995 1.985788636363636 2.9472176846590905 1.9663568181818176 Q 2.9168767755681815 1.9469249999999996 2.901194957386363 1.9121522727272722 Q 2.8855131392045448 1.877379545454545 2.8855131392045448 1.832379545454545 L 2.8855131392045448 1.6401068181818177 Q 2.8855131392045448 1.6332886363636359 2.889944957386363 1.6288568181818177 Q 2.894376775568181 1.6244249999999996 2.901194957386363 1.6244249999999996 L 2.935285866477272 1.6244249999999996 Q 2.942104048295454 1.6244249999999996 2.946535866477272 1.6288568181818177 Q 2.95096768465909 1.6332886363636359 2.95096768465909 1.6401068181818177 L 2.95096768465909 1.8289704545454541 Q 2.95096768465909 1.9305613636363632 3.039604048295454 1.9305613636363632 Q 3.081876775568181 1.9305613636363632 3.107444957386363 1.9036295454545449 Q 3.133013139204545 1.8766977272727268 3.133013139204545 1.8289704545454541 L 3.133013139204545 1.6401068181818177 Q 3.133013139204545 1.6332886363636359 3.137444957386363 1.6288568181818177 Q 3.141876775568181 1.6244249999999996 3.148694957386363 1.6244249999999996 L 3.182785866477272 1.6244249999999996 Q 3.189604048295454 1.6244249999999996 3.193694957386363 1.6288568181818177 Q 3.1977858664772723 1.6332886363636359 3.1977858664772723 1.6401068181818177 L 3.1977858664772723 1.963288636363636 Q 3.1977858664772723 1.9701068181818178 3.193694957386363 1.974538636363636 Q 3.189604048295454 1.978970454545454 3.182785866477272 1.978970454545454 L 3.1507404119318174 1.978970454545454 Q 3.1439222301136356 1.978970454545454 3.139490411931818 1.974538636363636 Q 3.1350585937499993 1.9701068181818178 3.1350585937499993 1.963288636363636 L 3.1350585937499993 1.933288636363636 Q 3.1166495028409087 1.9571522727272723 3.0903995028409086 1.971470454545454 Q 3.0641495028409085 1.985788636363636 3.021194957386363 1.985788636363636 M 3.4377788751775564 1.978970454545454 Q 3.3995970569957383 1.978970454545454 3.375733420632102 1.9643113636363632 Q 3.3518697842684655 1.9496522727272723 3.3409606933593743 1.9227204545454541 Q 3.3300516024502835 1.8957886363636358 3.3300516024502835 1.858970454545454 L 3.3300516024502835 1.678970454545454 L 3.2768697842684653 1.678970454545454 Q 3.2700516024502835 1.678970454545454 3.2656197842684653 1.6745386363636359 Q 3.261187966086647 1.6701068181818177 3.261187966086647 1.6632886363636359 L 3.261187966086647 1.6401068181818177 Q 3.261187966086647 1.6332886363636359 3.2656197842684653 1.6288568181818177 Q 3.2700516024502835 1.6244249999999996 3.2768697842684653 1.6244249999999996 L 3.3300516024502835 1.6244249999999996 L 3.3300516024502835 1.5105613636363633 Q 3.3300516024502835 1.5037431818181815 3.3344834206321017 1.4993113636363633 Q 3.33891523881392 1.494879545454545 3.3457334206321017 1.494879545454545 L 3.3777788751775564 1.494879545454545 Q 3.384597056995738 1.494879545454545 3.3890288751775564 1.4993113636363633 Q 3.3934606933593745 1.5037431818181815 3.3934606933593745 1.5105613636363633 L 3.3934606933593745 1.6244249999999996 L 3.478006147904829 1.6244249999999996 Q 3.485506147904829 1.6244249999999996 3.489597056995738 1.6288568181818177 Q 3.493687966086647 1.6332886363636359 3.493687966086647 1.6401068181818177 L 3.493687966086647 1.6632886363636359 Q 3.493687966086647 1.6701068181818177 3.489597056995738 1.6745386363636359 Q 3.485506147904829 1.678970454545454 3.478006147904829 1.678970454545454 L 3.3934606933593745 1.678970454545454 L 3.3934606933593745 1.8541977272727268 Q 3.3934606933593745 1.8862431818181813 3.4043697842684653 1.9046522727272723 Q 3.4152788751775565 1.9230613636363632 3.443233420632102 1.9230613636363632 L 3.484824329723011 1.9230613636363632 Q 3.4916425115411927 1.9230613636363632 3.496074329723011 1.9274931818181813 Q 3.500506147904829 1.9319249999999994 3.500506147904829 1.9387431818181813 L 3.500506147904829 1.963288636363636 Q 3.500506147904829 1.9701068181818178 3.496074329723011 1.974538636363636 Q 3.4916425115411927 1.978970454545454 3.484824329723011 1.978970454545454 L 3.4377788751775564 1.978970454545454 M 3.559136518998579 1.978970454545454 Q 3.552318337180397 1.978970454545454 3.547886518998579 1.974538636363636 Q 3.5434547008167607 1.9701068181818178 3.5434547008167607 1.963288636363636 L 3.5434547008167607 1.9394249999999995 Q 3.5434547008167607 1.933288636363636 3.546522882634943 1.9278340909090905 Q 3.5495910644531246 1.922379545454545 3.5530001553622155 1.9176068181818178 L 3.7411819735440335 1.6782886363636358 L 3.5652728826349427 1.6782886363636358 Q 3.558454700816761 1.6782886363636358 3.5540228826349427 1.6741977272727269 Q 3.5495910644531246 1.6701068181818177 3.5495910644531246 1.6626068181818177 L 3.5495910644531246 1.6401068181818177 Q 3.5495910644531246 1.6332886363636359 3.5540228826349427 1.6288568181818177 Q 3.558454700816761 1.6244249999999996 3.5652728826349427 1.6244249999999996 L 3.8080001553622154 1.6244249999999996 Q 3.814818337180397 1.6244249999999996 3.8192501553622153 1.6288568181818177 Q 3.8236819735440335 1.6332886363636359 3.8236819735440335 1.6401068181818177 L 3.8236819735440335 1.6653340909090906 Q 3.8236819735440335 1.671470454545454 3.820613791725852 1.6762431818181813 Q 3.81754560990767 1.6810159090909087 3.8141365189985788 1.686470454545454 L 3.628000155362215 1.9251068181818176 L 3.821636518998579 1.9251068181818176 Q 3.829136518998579 1.9251068181818176 3.8332274280894882 1.9291977272727268 Q 3.837318337180397 1.933288636363636 3.837318337180397 1.940788636363636 L 3.837318337180397 1.963288636363636 Q 3.837318337180397 1.9701068181818178 3.8332274280894882 1.974538636363636 Q 3.829136518998579 1.978970454545454 3.821636518998579 1.978970454545454 L 3.559136518998579 1.978970454545454 M 4.262750577059658 1.985788636363636 Q 4.20206875887784 1.985788636363636 4.160136940696022 1.963288636363636 Q 4.118205122514204 1.940788636363636 4.096046031605113 1.899879545454545 Q 4.073886940696021 1.858970454545454 4.071159667968749 1.8037431818181813 Q 4.070477849786931 1.7737431818181815 4.070477849786931 1.7399931818181813 Q 4.070477849786931 1.7062431818181814 4.071159667968749 1.675561363636363 Q 4.073886940696021 1.6203340909090904 4.096046031605113 1.5797659090909086 Q 4.118205122514204 1.5391977272727269 4.160477849786931 1.517038636363636 Q 4.202750577059658 1.494879545454545 4.262750577059658 1.494879545454545 Q 4.310477849786931 1.494879545454545 4.345932395241476 1.5085159090909086 Q 4.3813869406960215 1.5221522727272723 4.404227849786931 1.5429477272727268 Q 4.42706875887784 1.5637431818181815 4.438318758877839 1.5862431818181815 Q 4.44956875887784 1.6087431818181814 4.450250577059658 1.625788636363636 Q 4.450932395241476 1.6319249999999996 4.446841486150567 1.6356749999999995 Q 4.442750577059658 1.6394249999999995 4.435932395241476 1.6394249999999995 L 4.395705122514204 1.6394249999999995 Q 4.388886940696022 1.6394249999999995 4.38581875887784 1.6366977272727268 Q 4.382750577059658 1.633970454545454 4.3800233043323855 1.6271522727272723 Q 4.373886940696022 1.6094249999999994 4.359909667968749 1.592379545454545 Q 4.345932395241476 1.5753340909090905 4.322409667968749 1.5640840909090905 Q 4.298886940696022 1.5528340909090905 4.262750577059658 1.5528340909090905 Q 4.208205122514204 1.5528340909090905 4.175136940696022 1.5821522727272723 Q 4.14206875887784 1.6114704545454541 4.139341486150567 1.678970454545454 Q 4.137296031605112 1.7396522727272723 4.139341486150567 1.8003340909090904 Q 4.14206875887784 1.8685159090909087 4.1754778497869305 1.8981749999999995 Q 4.208886940696022 1.9278340909090905 4.262750577059658 1.9278340909090905 Q 4.298886940696022 1.9278340909090905 4.3271823952414765 1.9141977272727269 Q 4.355477849786931 1.9005613636363632 4.371841486150567 1.8729477272727268 Q 4.388205122514203 1.8453340909090905 4.388205122514203 1.802379545454545 L 4.388205122514203 1.7737431818181815 L 4.285932395241476 1.7737431818181815 Q 4.279114213423295 1.7737431818181815 4.274682395241476 1.769311363636363 Q 4.270250577059658 1.764879545454545 4.270250577059658 1.757379545454545 L 4.270250577059658 1.7355613636363632 Q 4.270250577059658 1.728061363636363 4.274682395241476 1.723629545454545 Q 4.279114213423295 1.7191977272727268 4.285932395241476 1.7191977272727268 L 4.440023304332385 1.7191977272727268 Q 4.447523304332385 1.7191977272727268 4.451614213423294 1.723629545454545 Q 4.455705122514203 1.728061363636363 4.455705122514203 1.7355613636363632 L 4.455705122514203 1.8010159090909086 Q 4.455705122514203 1.8569249999999995 4.4328642134232945 1.8985159090909085 Q 4.410023304332386 1.9401068181818177 4.366386940696022 1.9629477272727267 Q 4.322750577059658 1.985788636363636 4.262750577059658 1.985788636363636 M 4.560002330433238 1.978970454545454 Q 4.553184148615056 1.978970454545454 4.548752330433238 1.974538636363636 Q 4.54432051225142 1.9701068181818178 4.54432051225142 1.963288636363636 L 4.54432051225142 1.6401068181818177 Q 4.54432051225142 1.6332886363636359 4.548752330433238 1.6288568181818177 Q 4.553184148615056 1.6244249999999996 4.560002330433238 1.6244249999999996 L 4.590684148615056 1.6244249999999996 Q 4.597502330433238 1.6244249999999996 4.601934148615056 1.6288568181818177 Q 4.606365966796874 1.6332886363636359 4.606365966796874 1.6401068181818177 L 4.606365966796874 1.6639704545454541 Q 4.622047784978692 1.6428340909090904 4.645911421342329 1.6302204545454542 Q 4.669775057705965 1.6176068181818177 4.703184148615056 1.6176068181818177 Q 4.78022960316051 1.6169249999999995 4.812275057705965 1.6803340909090905 Q 4.827956875887783 1.651697727272727 4.857956875887783 1.6346522727272723 Q 4.887956875887783 1.6176068181818177 4.926138694069602 1.6176068181818177 Q 4.961593239524147 1.6176068181818177 4.99057051225142 1.633970454545454 Q 5.019547784978692 1.6503340909090904 5.036252330433237 1.6834022727272724 Q 5.052956875887784 1.716470454545454 5.052956875887784 1.7662431818181814 L 5.052956875887784 1.963288636363636 Q 5.052956875887784 1.9701068181818178 5.048525057705965 1.974538636363636 Q 5.0440932395241465 1.978970454545454 5.037275057705965 1.978970454545454 L 5.005229603160511 1.978970454545454 Q 4.998411421342329 1.978970454545454 4.99397960316051 1.974538636363636 Q 4.989547784978693 1.9701068181818178 4.989547784978693 1.963288636363636 L 4.989547784978693 1.772379545454545 Q 4.989547784978693 1.734197727272727 4.978638694069601 1.712379545454545 Q 4.96772960316051 1.6905613636363632 4.949320512251419 1.6816977272727267 Q 4.930911421342328 1.6728340909090904 4.909093239524147 1.6728340909090904 Q 4.891365966796874 1.6728340909090904 4.872956875887783 1.6816977272727267 Q 4.854547784978692 1.6905613636363632 4.842615966796874 1.712379545454545 Q 4.830684148615056 1.734197727272727 4.830684148615056 1.772379545454545 L 4.830684148615056 1.963288636363636 Q 4.830684148615056 1.9701068181818178 4.826252330433237 1.974538636363636 Q 4.82182051225142 1.978970454545454 4.815002330433238 1.978970454545454 L 4.782956875887783 1.978970454545454 Q 4.776138694069601 1.978970454545454 4.771706875887784 1.974538636363636 Q 4.767275057705965 1.9701068181818178 4.767275057705965 1.963288636363636 L 4.767275057705965 1.772379545454545 Q 4.767275057705965 1.734197727272727 4.755684148615056 1.712379545454545 Q 4.744093239524147 1.6905613636363632 4.725684148615056 1.6816977272727267 Q 4.707275057705965 1.6728340909090904 4.68682051225142 1.6728340909090904 Q 4.6690932395241465 1.6728340909090904 4.650684148615056 1.6816977272727267 Q 4.632275057705965 1.6905613636363632 4.620343239524146 1.712379545454545 Q 4.608411421342328 1.734197727272727 4.608411421342328 1.7716977272727268 L 4.608411421342328 1.963288636363636 Q 4.608411421342328 1.9701068181818178 4.603979603160511 1.974538636363636 Q 4.599547784978692 1.978970454545454 4.59272960316051 1.978970454545454 L 4.560002330433238 1.978970454545454 M 5.325668501420454 1.985788636363636 Q 5.284759410511363 1.985788636363636 5.2574866832386355 1.971129545454545 Q 5.230213955965908 1.956470454545454 5.2138503196022725 1.9346522727272721 L 5.2138503196022725 1.963288636363636 Q 5.2138503196022725 1.9701068181818178 5.209418501420454 1.974538636363636 Q 5.204986683238636 1.978970454545454 5.198168501420454 1.978970454545454 L 5.166804865056817 1.978970454545454 Q 5.159986683238635 1.978970454545454 5.155554865056818 1.974538636363636 Q 5.151123046874999 1.9701068181818178 5.151123046874999 1.963288636363636 L 5.151123046874999 1.5105613636363633 Q 5.151123046874999 1.5037431818181815 5.155554865056818 1.4993113636363633 Q 5.159986683238635 1.494879545454545 5.166804865056817 1.494879545454545 L 5.200213955965909 1.494879545454545 Q 5.207032137784091 1.494879545454545 5.211123046875 1.4993113636363633 Q 5.2152139559659085 1.5037431818181815 5.2152139559659085 1.5105613636363633 L 5.2152139559659085 1.667379545454545 Q 5.232259410511363 1.6462431818181813 5.259191228693181 1.6319249999999996 Q 5.286123046875 1.6176068181818177 5.325668501420454 1.6176068181818177 Q 5.363850319602272 1.6176068181818177 5.3907821377840905 1.6309022727272722 Q 5.417713955965908 1.6441977272727268 5.435100319602272 1.667379545454545 Q 5.452486683238636 1.6905613636363632 5.461350319602272 1.719879545454545 Q 5.470213955965908 1.7491977272727268 5.471577592329545 1.7812431818181813 Q 5.472259410511363 1.7921522727272723 5.472259410511363 1.8016977272727268 Q 5.472259410511363 1.8112431818181813 5.471577592329545 1.8221522727272723 Q 5.470213955965908 1.854879545454545 5.461350319602272 1.8841977272727268 Q 5.452486683238636 1.9135159090909086 5.435100319602272 1.9363568181818176 Q 5.417713955965908 1.9591977272727268 5.3907821377840905 1.9724931818181812 Q 5.363850319602272 1.985788636363636 5.325668501420454 1.985788636363636 M 5.311350319602272 1.9305613636363632 Q 5.346804865056818 1.9305613636363632 5.366918501420454 1.915220454545454 Q 5.38703213778409 1.899879545454545 5.395895774147727 1.8749931818181813 Q 5.404759410511363 1.8501068181818177 5.406123046874999 1.821470454545454 Q 5.4068048650568175 1.8016977272727268 5.406123046874999 1.7819249999999995 Q 5.404759410511363 1.753288636363636 5.395895774147727 1.7284022727272723 Q 5.38703213778409 1.7035159090909087 5.366918501420454 1.6881749999999995 Q 5.346804865056818 1.6728340909090904 5.311350319602272 1.6728340909090904 Q 5.279304865056818 1.6728340909090904 5.258168501420454 1.6878340909090905 Q 5.23703213778409 1.7028340909090904 5.226463955965908 1.7260159090909086 Q 5.215895774147727 1.7491977272727268 5.2152139559659085 1.7730613636363632 Q 5.21453213778409 1.783970454545454 5.21453213778409 1.7993113636363631 Q 5.21453213778409 1.8146522727272723 5.2152139559659085 1.8255613636363632 Q 5.2165775923295445 1.8507886363636359 5.226463955965908 1.8749931818181813 Q 5.2363503196022725 1.8991977272727267 5.257145774147727 1.914879545454545 Q 5.277941228693181 1.9305613636363632 5.311350319602272 1.9305613636363632 M 5.5806485262784085 1.978970454545454 Q 5.573148526278408 1.978970454545454 5.569057617187499 1.974538636363636 Q 5.56496670809659 1.9701068181818178 5.56496670809659 1.963288636363636 L 5.56496670809659 1.5180613636363631 Q 5.56496670809659 1.5105613636363633 5.569057617187499 1.5061295454545451 Q 5.573148526278408 1.5016977272727268 5.5806485262784085 1.5016977272727268 L 5.615421253551135 1.5016977272727268 Q 5.6229212535511355 1.5016977272727268 5.627353071732954 1.5061295454545451 Q 5.631784889914772 1.5105613636363633 5.631784889914772 1.5180613636363631 L 5.631784889914772 1.7062431818181814 L 5.866330344460226 1.7062431818181814 L 5.866330344460226 1.5180613636363631 Q 5.866330344460226 1.5105613636363633 5.870762162642045 1.5061295454545451 Q 5.8751939808238625 1.5016977272727268 5.882012162642044 1.5016977272727268 L 5.916784889914772 1.5016977272727268 Q 5.924284889914772 1.5016977272727268 5.92871670809659 1.5061295454545451 Q 5.9331485262784085 1.5105613636363633 5.9331485262784085 1.5180613636363631 L 5.9331485262784085 1.963288636363636 Q 5.9331485262784085 1.9701068181818178 5.92871670809659 1.974538636363636 Q 5.924284889914772 1.978970454545454 5.916784889914772 1.978970454545454 L 5.882012162642044 1.978970454545454 Q 5.8751939808238625 1.978970454545454 5.870762162642045 1.974538636363636 Q 5.866330344460226 1.9701068181818178 5.866330344460226 1.963288636363636 L 5.866330344460226 1.7676068181818176 L 5.631784889914772 1.7676068181818176 L 5.631784889914772 1.963288636363636 Q 5.631784889914772 1.9701068181818178 5.627353071732954 1.974538636363636 Q 5.6229212535511355 1.978970454545454 5.615421253551135 1.978970454545454 L 5.5806485262784085 1.978970454545454" fill="#4e888f" fill-rule="nonzero"></path></g></g><defs><clipPath id="SvgjsClipPath88755"><path d=" M -3.7157164121220654 -0.7410683447057202 h 3.3157164121220655 v 3.4611071439568946 h -3.3157164121220655 Z"></path></clipPath><clipPath id="SvgjsClipPath88750d9c75f18-fba9-4776-81a3-b3b504ec68b9"><path d=" M -3.7157164121220654 -0.7410683447057202 L -0.3999999999999999 -0.7410683447057202 L -0.3999999999999999 2.7200387992511743 L -3.7157164121220654 2.7200387992511743 Z"></path></clipPath></defs></svg>